HIERARCHY
ROOT Hips
{
	OFFSET -13.091600 -28.302996 44.698402
	CHANNELS 6 Xposition Yposition Zposition Zrotation Xrotation Yrotation
	JOINT Chest
	{
		OFFSET -0.673000 0.623899 5.369202
		CHANNELS 6 Xposition Yposition Zposition Zrotation Xrotation Yrotation
		JOINT Chest2
		{
			OFFSET 0.000000 0.000000 4.415001
			CHANNELS 6 Xposition Yposition Zposition Zrotation Xrotation Yrotation
			JOINT Neck
			{
				OFFSET 0.000000 0.000002 10.273300
				CHANNELS 6 Xposition Yposition Zposition Zrotation Xrotation Yrotation
				JOINT Head
				{
					OFFSET 0.000000 0.000000 2.173897
					CHANNELS 6 Xposition Yposition Zposition Zrotation Xrotation Yrotation
					End Site
					{
						OFFSET 0.000000 0.000000 9.961800
					}
				}
			}
			JOINT LeftCollar
			{
				OFFSET 2.359900 -0.565201 5.928101
				CHANNELS 6 Xposition Yposition Zposition Zrotation Xrotation Yrotation
				JOINT LeftShoulder
				{
					OFFSET 5.443700 0.000000 0.000000
					CHANNELS 6 Xposition Yposition Zposition Zrotation Xrotation Yrotation
					JOINT LeftElbow
					{
						OFFSET 0.000000 0.000000 -10.615799
						CHANNELS 6 Xposition Yposition Zposition Zrotation Xrotation Yrotation
						JOINT LeftWrist
						{
							OFFSET 0.000000 -0.000002 -13.110302
							CHANNELS 6 Xposition Yposition Zposition Zrotation Xrotation Yrotation
							End Site
							{
								OFFSET 0.000000 0.000000 -2.173901
							}
						}
					}
				}
			}
			JOINT RightCollar
			{
				OFFSET -2.636600 -1.718800 6.889698
				CHANNELS 6 Xposition Yposition Zposition Zrotation Xrotation Yrotation
				JOINT RightShoulder
				{
					OFFSET -4.139101 0.000000 0.000000
					CHANNELS 6 Xposition Yposition Zposition Zrotation Xrotation Yrotation
					JOINT RightElbow
					{
						OFFSET 0.000000 0.000000 -10.471802
						CHANNELS 6 Xposition Yposition Zposition Zrotation Xrotation Yrotation
						JOINT RightWrist
						{
							OFFSET 0.000000 0.000000 -12.281898
							CHANNELS 6 Xposition Yposition Zposition Zrotation Xrotation Yrotation
							End Site
							{
								OFFSET 0.000000 -0.000002 -2.173901
							}
						}
					}
				}
			}
		}
	}
	JOINT LeftHip
	{
		OFFSET 2.273400 0.176701 -2.518002
		CHANNELS 6 Xposition Yposition Zposition Zrotation Xrotation Yrotation
		JOINT LeftKnee
		{
			OFFSET 0.000000 -0.000002 -20.456402
			CHANNELS 6 Xposition Yposition Zposition Zrotation Xrotation Yrotation
			JOINT LeftAnkle
			{
				OFFSET 0.000000 -0.000002 -16.635300
				CHANNELS 6 Xposition Yposition Zposition Zrotation Xrotation Yrotation
				End Site
				{
					OFFSET 0.000000 -8.812399 0.000001
				}
			}
		}
	}
	JOINT RightHip
	{
		OFFSET -1.914800 0.018101 -2.699299
		CHANNELS 6 Xposition Yposition Zposition Zrotation Xrotation Yrotation
		JOINT RightKnee
		{
			OFFSET 0.000000 -0.000002 -20.148901
			CHANNELS 6 Xposition Yposition Zposition Zrotation Xrotation Yrotation
			JOINT RightAnkle
			{
				OFFSET 0.000000 -0.000002 -16.838301
				CHANNELS 6 Xposition Yposition Zposition Zrotation Xrotation Yrotation
				End Site
				{
					OFFSET 0.000000 -8.328398 0.000001
				}
			}
		}
	}
}
MOTION
Frames: 9
Frame Time: 0.041667
0.622900 15.294409 41.716602 2213.082487 3.262837 -1.465408 -0.672999 0.623900 5.369209 45.447064 19.817727 -6.439434 0.000001 0.000001 4.415008 -23.831597 -1.330638 -0.852564 0.000000 -0.000002 10.273304 -6.928970 31.954545 3.635699 -0.000001 -0.000002 2.173895 0.312023 -1.296274 -0.335958 2.359901 -0.565205 5.928103 30.301547 -1.224378 -28.346412 5.443694 0.000002 -0.000002 -11.924172 407.106459 -117.592307 0.000001 -0.000000 -10.615792 881.502520 -186.222594 179.773065 0.000007 -0.000004 -13.110291 -1764.500798 7.968123 44.616520 -2.636596 -1.718800 6.889704 194.063638 -160.711209 227.476664 -4.139101 -0.000000 0.000000 404.711357 -350.205136 445.680662 0.000002 -0.000000 -10.471798 18.863900 0.058481 -361.400199 0.000007 -0.000004 -12.281894 369.440069 7.433233 -3.376443 2.273399 0.176702 -2.517998 -493.556409 -144.640280 -153.493707 0.000001 0.000001 -20.456394 540.210699 165.637306 -203.644754 0.000008 0.000000 -16.635294 -104.901351 29.868366 31.257866 -1.914799 0.018102 -2.699292 -63.914192 154.218923 138.542000 -0.000001 -0.000001 -20.148899 -182.658875 -167.536918 178.086200 -0.000002 -0.000001 -16.838306 623.765441 49.518578 -107.021831
0.572601 15.274309 41.786098 2212.579567 2.461064 -1.234980 -0.672998 0.623899 5.369208 46.770817 19.609265 -6.558144 0.000004 -0.000002 4.415009 -24.863569 -1.079660 -0.838761 -0.000000 0.000000 10.273297 -5.842415 32.215438 3.033662 -0.000002 -0.000000 2.173898 0.176001 -1.231387 -0.058603 2.359900 -0.565200 5.928096 31.080718 -1.277713 -28.267884 5.443696 0.000000 -0.000001 -12.530957 403.981702 -119.848797 -0.000006 -0.000000 -10.615791 880.905562 -186.427240 179.432266 0.000001 -0.000003 -13.110304 -1764.165736 8.090691 44.210008 -2.636599 -1.718801 6.889697 195.273524 -159.368872 228.725086 -4.139102 -0.000000 0.000003 406.480486 -353.026742 445.710251 -0.000002 -0.000006 -10.471801 18.806716 -0.098754 -361.414160 -0.000001 0.000005 -12.281904 369.523479 7.308759 -1.479757 2.273401 0.176705 -2.518006 -493.768800 -145.112123 -154.641780 -0.000001 -0.000002 -20.456398 539.996013 165.659094 -203.536851 0.000007 -0.000001 -16.635298 -104.526667 29.630211 30.908242 -1.914797 0.018104 -2.699297 -65.122883 153.741288 138.684928 -0.000003 -0.000001 -20.148901 -188.515134 -167.371696 176.003060 -0.000001 -0.000001 -16.838303 628.867647 48.879559 -105.292393
0.515901 15.259413 41.844799 2212.022879 1.637929 -0.939723 -0.673000 0.623900 5.369206 47.388884 19.469579 -6.602363 0.000004 -0.000002 4.415011 -25.435951 -0.962400 -0.849916 -0.000002 -0.000004 10.273300 -4.643173 32.511820 2.593285 -0.000003 -0.000006 2.173902 0.119706 -1.120640 0.124119 2.359902 -0.565207 5.928100 31.673896 -1.423151 -28.211955 5.443695 -0.000001 -0.000000 -14.326231 400.001614 -121.211474 -0.000000 0.000002 -10.615796 878.995841 -186.748970 179.193332 0.000006 -0.000005 -13.110307 -1764.419054 8.005077 44.045861 -2.636599 -1.718804 6.889703 196.042084 -158.673258 230.316356 -4.139103 -0.000003 0.000002 408.314637 -356.542596 445.956520 0.000004 -0.000002 -10.471798 19.000763 -0.172511 -361.324083 0.000005 -0.000002 -12.281895 369.601535 7.102816 0.398426 2.273397 0.176706 -2.518002 -493.954090 -145.537042 -155.826354 0.000001 -0.000003 -20.456396 539.823619 165.704310 -203.467989 0.000008 -0.000000 -16.635298 -104.178116 29.433321 30.616108 -1.914798 0.018102 -2.699298 -66.350452 153.293569 138.835411 -0.000001 -0.000001 -20.148903 -193.934793 -167.423619 174.082657 -0.000001 -0.000004 -16.838301 633.665883 48.378862 -103.086836
0.454097 15.252710 41.891502 2211.182930 0.721095 -0.593207 -0.672994 0.623899 5.369206 47.730776 19.444710 -6.597392 -0.000002 -0.000002 4.415006 -25.397451 -0.944571 -0.844191 0.000001 -0.000002 10.273299 -3.635960 32.833068 2.202309 -0.000002 0.000002 2.173894 0.125187 -1.011132 0.266468 2.359904 -0.565206 5.928098 31.909537 -1.746264 -28.300033 5.443694 -0.000002 -0.000005 -17.825687 394.656062 -121.650751 -0.000001 0.000006 -10.615800 875.566102 -187.274594 179.115195 0.000006 0.000002 -13.110298 -1765.634828 7.698976 43.719689 -2.636593 -1.718803 6.889706 196.295238 -158.679173 230.621119 -4.139094 0.000005 0.000003 409.902902 -359.558124 447.456430 -0.000007 -0.000003 -10.471800 19.453945 -0.168224 -361.151197 -0.000003 0.000000 -12.281899 370.322120 7.011856 2.116151 2.273400 0.176701 -2.518006 -493.723448 -146.007779 -156.967883 0.000000 -0.000007 -20.456394 539.883287 165.909926 -203.516442 0.000008 -0.000002 -16.635296 -104.383923 29.263560 30.628460 -1.914795 0.018098 -2.699303 -67.706224 152.662569 139.074276 0.000003 0.000000 -20.148901 -203.321877 -167.935254 170.957504 -0.000001 0.000003 -16.838306 642.113952 48.102376 -98.653456
0.387498 15.253805 41.925804 2210.819454 -0.009015 -0.233368 -0.673002 0.623896 5.369208 46.988167 19.318048 -6.332365 0.000000 -0.000005 4.415010 -24.778080 -1.011402 -0.820940 -0.000001 -0.000005 10.273300 -2.817649 33.172955 1.897777 -0.000002 0.000008 2.173899 0.159185 -0.908417 0.435171 2.359901 -0.565203 5.928101 31.793206 -2.232023 -28.524840 5.443695 -0.000007 -0.000002 -23.713073 387.007261 -121.271334 -0.000002 -0.000009 -10.615793 870.519194 -188.176329 179.486552 -0.000001 -0.000003 -13.110300 -1768.870479 6.846325 43.238844 -2.636598 -1.718808 6.889702 195.983522 -159.255286 230.409711 -4.139107 0.000003 -0.000003 411.534716 -362.611738 449.557833 -0.000002 -0.000005 -10.471804 20.227971 -0.122813 -360.907961 0.000000 -0.000005 -12.281898 370.158523 6.565474 3.812992 2.273397 0.176701 -2.518003 -494.221068 -146.272708 -158.086654 -0.000001 -0.000005 -20.456398 539.877277 166.042869 -203.591151 0.000002 0.000001 -16.635296 -104.165760 29.121799 30.514584 -1.914801 0.018098 -2.699296 -68.870396 152.354500 139.164012 0.000000 0.000000 -20.148901 -208.428673 -168.417466 169.303177 -0.000001 -0.000001 -16.838305 646.796949 48.124311 -95.083610
0.316399 15.263910 41.947304 2210.425598 -0.622433 0.010589 -0.672996 0.623902 5.369211 45.740981 19.235957 -5.757335 0.000003 0.000002 4.415009 -23.667049 -1.140931 -0.782152 -0.000002 0.000001 10.273298 -2.042015 33.539316 1.460345 -0.000003 0.000006 2.173901 0.179590 -0.791990 0.657923 2.359900 -0.565199 5.928100 31.479509 -2.917721 -28.969383 5.443691 0.000002 -0.000004 -35.370169 372.430982 -120.698978 -0.000004 -0.000009 -10.615792 862.833592 -189.984335 181.917485 0.000010 -0.000007 -13.110296 -1778.716880 4.548414 41.222903 -2.636599 -1.718800 6.889698 195.123888 -160.249448 229.500093 -4.139098 -0.000002 0.000006 413.323789 -365.813976 452.555903 0.000003 -0.000001 -10.471793 20.953799 -0.157297 -360.651774 -0.000001 -0.000004 -12.281900 371.801347 6.546452 5.497338 2.273400 0.176702 -2.518003 -494.524219 -146.548716 -158.922519 0.000001 -0.000007 -20.456396 540.323588 166.469646 -203.780770 0.000008 -0.000001 -16.635298 -104.825529 28.930455 30.840613 -1.914799 0.018100 -2.699303 -69.926541 151.925414 139.263773 -0.000000 -0.000002 -20.148901 -214.155049 -169.070213 167.543652 -0.000005 -0.000001 -16.838303 652.003083 48.482103 -90.371783
0.238694 15.283113 41.959503 2209.773616 -1.386816 0.699417 -0.672995 0.623900 5.369212 45.582169 18.871744 -5.870974 0.000002 -0.000000 4.415001 -23.170321 -1.199387 -0.825775 -0.000002 -0.000004 10.273304 -1.418286 33.835374 1.105480 -0.000002 -0.000001 2.173909 0.236633 -0.696377 0.874017 2.359900 -0.565204 5.928098 31.589454 -3.390456 -29.318973 5.443695 -0.000003 -0.000002 -60.366919 341.731440 -128.926883 0.000004 -0.000005 -10.615796 844.170291 -188.651341 189.759895 0.000001 -0.000009 -13.110303 -1798.336462 4.151047 34.130271 -2.636600 -1.718806 6.889697 194.731138 -160.628086 228.981600 -4.139100 -0.000002 0.000001 415.246077 -369.333518 454.905297 0.000002 0.000000 -10.471800 22.547991 -0.371288 -360.419821 -0.000000 -0.000000 -12.281895 373.708446 6.630432 7.324936 2.273403 0.176703 -2.518005 -494.843872 -146.603932 -160.208070 0.000001 -0.000005 -20.456394 540.826181 166.928949 -204.031520 0.000005 0.000000 -16.635296 -105.392209 28.874956 31.179568 -1.914795 0.018102 -2.699298 -70.450335 152.084926 139.246848 0.000000 -0.000001 -20.148901 -218.197592 -169.642679 166.287676 -0.000001 -0.000002 -16.838303 655.742420 48.816530 -85.946558
0.152898 15.311617 41.966900 2209.379104 -1.991806 1.146976 -0.673001 0.623898 5.369212 45.442287 18.517705 -5.859907 -0.000000 -0.000000 4.415008 -23.157808 -1.191318 -0.760344 -0.000001 -0.000006 10.273305 -0.620731 34.075530 0.655341 -0.000002 -0.000007 2.173901 0.293875 -0.622998 1.116143 2.359904 -0.565205 5.928102 32.064402 -3.963835 -29.727398 5.443698 0.000003 -0.000001 -76.458456 329.442399 -138.985047 -0.000007 0.000000 -10.615794 824.649501 -182.830914 191.898017 0.000001 -0.000008 -13.110298 -1795.772354 6.754613 32.157029 -2.636597 -1.718803 6.889706 194.747504 -160.563363 228.686290 -4.139096 0.000002 0.000001 417.246940 -372.759951 456.767098 -0.000003 0.000002 -10.471795 24.137590 -0.723185 -360.248055 0.000002 0.000002 -12.281899 374.919356 6.381059 9.305249 2.273396 0.176702 -2.517998 -495.157405 -146.722545 -161.078209 -0.000002 -0.000003 -20.456392 541.336751 167.415136 -204.316544 0.000003 -0.000000 -16.635296 -106.355416 28.680179 31.600560 -1.914805 0.018100 -2.699296 -71.121148 152.026842 139.255932 0.000005 -0.000003 -20.148899 -221.365707 -170.191116 165.240895 -0.000005 -0.000003 -16.838303 658.636836 49.080790 -81.337991
0.058198 15.347612 41.969601 2209.055408 -2.513456 1.639398 -0.672999 0.623898 5.369207 45.533347 18.014889 -5.980427 0.000001 -0.000001 4.415004 -23.526517 -1.072799 -0.764137 -0.000002 0.000003 10.273307 0.226813 34.238516 0.305258 -0.000002 0.000000 2.173903 0.315911 -0.550641 1.346393 2.359901 -0.565199 5.928108 32.759332 -4.489349 -29.970815 5.443695 0.000003 -0.000008 -85.202874 326.152734 -144.368616 -0.000011 0.000001 -10.615795 813.440341 -179.997287 191.130099 0.000003 -0.000012 -13.110300 -1790.340769 7.493819 32.068657 -2.636598 -1.718797 6.889707 195.200290 -160.164412 228.932314 -4.139104 -0.000003 0.000006 419.128357 -376.166549 458.082483 -0.000005 0.000003 -10.471793 25.603294 -1.241414 -360.095988 0.000004 0.000010 -12.281897 376.612642 6.340685 11.231903 2.273397 0.176705 -2.517998 -495.395697 -146.743213 -161.844625 -0.000001 -0.000004 -20.456392 541.875517 167.935118 -204.593016 0.000003 -0.000005 -16.635292 -107.373565 28.555809 32.105806 -1.914800 0.018102 -2.699294 -71.649716 152.125211 139.262298 0.000002 -0.000001 -20.148899 -222.994571 -170.538554 164.546429 -0.000002 -0.000002 -16.838301 659.948068 48.905473 -77.463682
